{"glyphs":{"0":{"ha":926,"x_min":57,"x_max":869,"o":"m 464 972 q 778 845 688 972 q 869 478 869 718 l 869 478 q 778 110 869 238 q 464 -17 688 -17 l 464 -17 q 148 110 239 -17 q 57 478 57 238 l 57 478 q 148 845 57 718 q 464 972 239 972 l 464 972 z m 464 785 q 361 729 392 785 q 331 547 331 674 l 331 547 l 331 410 q 361 226 331 282 q 464 171 392 171 l 464 171 q 565 226 536 171 q 594 410 594 282 l 594 410 l 594 547 q 565 730 594 675 q 464 785 536 785 l 464 785 z "},"1":{"ha":926,"x_min":146,"x_max":867,"o":"m 649 214 l 867 214 l 867 0 l 146 0 l 146 214 l 372 214 l 372 646 l 146 646 l 146 807 q 354 856 239 813 q 556 957 469 900 l 556 957 l 649 957 l 649 214 z "},"2":{"ha":926,"x_min":68,"x_max":860,"o":"m 481 972 q 676 937 593 972 q 803 836 758 901 q 849 685 849 771 l 849 685 q 808 539 849 604 q 707 424 768 474 q 539 301 646 374 l 539 301 q 442 235 479 263 l 442 235 l 860 235 l 860 0 l 68 0 l 68 67 q 102 198 68 140 q 201 314 136 256 l 201 314 q 393 472 268 372 l 393 472 q 533 593 493 551 q 574 675 574 635 l 574 675 q 544 747 574 718 q 454 776 514 776 l 454 776 q 356 740 392 776 q 319 646 319 704 l 319 646 l 319 618 l 72 618 q 71 649 71 629 l 71 649 q 176 885 71 799 q 481 972 281 972 l 481 972 z "},"3":{"ha":926,"x_min":58,"x_max":868,"o":"m 471 972 q 669 938 585 972 q 797 844 753 903 q 840 713 840 785 l 840 713 q 801 583 840 640 q 701 501 763 525 l 701 501 l 701 496 q 824 409 781 471 q 868 260 868 347 l 868 260 q 762 60 863 138 q 465 -17 661 -17 l 465 -17 q 239 19 331 -17 q 103 118 147 56 q 58 258 58 181 l 58 258 l 58 288 l 303 288 q 447 174 303 174 l 447 174 q 592 301 592 174 l 592 301 q 565 376 592 350 q 494 401 538 401 l 494 401 l 393 401 l 393 572 l 472 572 q 542 598 515 572 q 569 672 569 624 l 569 672 q 537 750 569 718 q 447 782 504 782 l 447 782 q 354 751 388 782 q 321 676 321 721 l 321 676 l 89 676 l 89 711 q 134 843 89 783 q 266 938 179 903 q 471 972 353 972 l 471 972 z "},"4":{"ha":926,"x_min":32,"x_max":894,"o":"m 571 972 q 504 792 561 900 q 369 577 447 685 q 222 400 290 469 l 222 400 l 497 400 l 497 599 q 585 743 540 660 q 643 881 629 826 l 643 881 l 761 881 l 761 400 l 894 400 l 894 196 l 761 196 l 761 0 l 497 0 l 497 196 l 32 196 l 32 403 q 181 665 107 511 q 299 972 254 819 l 299 972 l 571 972 z "},"5":{"ha":926,"x_min":54,"x_max":868,"o":"m 797 719 l 343 719 l 332 575 q 360 594 332 578 q 433 624 388 610 q 536 638 479 638 l 536 638 q 778 551 689 638 q 868 313 868 464 l 868 313 q 819 146 868 221 q 682 27 771 71 q 476 -17 593 -17 l 476 -17 q 163 71 272 -17 q 54 308 54 158 l 54 308 l 299 308 q 338 213 299 251 q 447 175 376 175 l 447 175 q 556 215 518 175 q 594 317 594 254 l 594 317 q 556 420 594 381 q 449 460 518 460 l 449 460 q 369 442 396 460 q 330 410 342 425 q 315 390 318 394 l 315 390 l 96 421 l 136 956 l 797 956 l 797 719 z "},"6":{"ha":926,"x_min":57,"x_max":876,"o":"m 471 972 q 749 888 644 972 q 853 650 853 804 l 853 650 l 606 650 l 606 660 q 572 749 606 714 q 475 785 539 785 l 475 785 q 373 740 410 785 q 336 618 336 694 l 336 618 l 336 538 q 432 592 376 574 q 538 610 488 610 l 538 610 q 710 576 633 610 q 832 476 788 542 q 876 317 876 410 l 876 317 q 767 71 876 158 q 471 -17 658 -17 l 471 -17 q 159 98 261 -17 q 57 454 57 213 l 57 454 q 158 850 57 728 q 471 972 258 972 l 471 972 z m 472 443 q 372 408 407 443 q 336 307 336 372 l 336 307 q 371 206 336 242 q 471 171 406 171 l 471 171 q 573 205 538 171 q 608 304 608 239 l 608 304 q 573 406 608 369 q 472 443 538 443 l 472 443 z "},"7":{"ha":926,"x_min":63,"x_max":868,"o":"m 868 829 q 619 454 710 633 q 528 82 528 275 l 528 82 l 528 0 l 219 0 q 301 372 219 189 q 521 717 382 554 l 521 717 l 63 717 l 63 956 l 868 956 l 868 829 z "},"8":{"ha":926,"x_min":57,"x_max":869,"o":"m 461 972 q 650 939 565 972 q 784 842 735 906 q 833 690 833 779 l 833 690 q 804 574 833 617 q 717 489 775 531 l 717 489 l 717 483 q 831 391 793 440 q 869 263 869 342 l 869 263 q 760 56 869 128 q 461 -17 650 -17 l 461 -17 q 165 56 272 -17 q 57 263 57 128 l 57 263 q 94 391 57 342 q 208 483 132 440 l 208 483 l 208 489 q 121 574 150 531 q 92 690 92 617 l 92 690 q 140 842 92 779 q 273 939 189 906 q 461 972 357 972 l 461 972 z m 461 785 q 367 759 401 785 q 333 679 333 733 l 333 679 q 369 601 333 626 q 461 575 404 575 l 461 575 q 556 601 518 575 q 593 679 593 626 l 593 679 q 557 759 593 733 q 461 785 521 785 l 461 785 z m 461 399 q 370 369 407 399 q 333 285 333 339 l 333 285 q 368 201 333 231 q 461 171 403 171 l 461 171 q 556 201 519 171 q 593 285 593 231 l 593 285 q 555 369 593 339 q 461 399 517 399 l 461 399 z "},"9":{"ha":926,"x_min":50,"x_max":869,"o":"m 456 972 q 767 858 665 972 q 869 501 869 743 l 869 501 q 769 106 869 228 q 456 -17 668 -17 l 456 -17 q 178 67 282 -17 q 74 306 74 151 l 74 306 l 321 306 l 321 296 q 354 206 321 242 q 451 171 388 171 l 451 171 q 553 216 517 171 q 590 338 590 261 l 590 338 l 590 418 q 494 364 550 382 q 389 346 439 346 l 389 346 q 216 380 293 346 q 94 480 139 414 q 50 639 50 546 l 50 639 q 159 885 50 797 q 456 972 268 972 l 456 972 z m 454 785 q 353 749 389 785 q 318 649 318 714 l 318 649 q 353 548 318 583 q 453 513 388 513 l 453 513 q 555 547 519 513 q 590 646 590 581 l 590 646 q 555 748 590 711 q 454 785 519 785 l 454 785 z "},"A":{"ha":1081,"x_min":14,"x_max":1068,"o":"m 1068 0 l 743 0 l 703 135 l 368 135 l 328 0 l 14 0 l 363 956 l 719 956 l 1068 0 z m 533 689 l 432 349 l 639 349 l 539 689 l 533 689 z "},"B":{"ha":1081,"x_min":103,"x_max":1025,"o":"m 739 956 q 872 926 811 956 q 967 842 932 896 q 1003 721 1003 788 l 1003 721 q 843 499 1003 544 l 843 499 l 843 493 q 1025 254 1025 451 l 1025 254 q 988 122 1025 179 q 888 32 951 64 q 747 0 824 0 l 747 0 l 103 0 l 103 956 l 739 956 z m 410 746 l 410 583 l 621 583 q 672 605 651 583 q 692 658 692 626 l 692 658 l 692 672 q 671 724 692 703 q 621 746 650 746 l 621 746 l 410 746 z m 410 386 l 410 222 l 643 222 q 694 244 674 222 q 714 297 714 265 l 714 297 l 714 311 q 694 365 714 343 q 643 386 674 386 l 643 386 l 410 386 z "},"C":{"ha":1081,"x_min":63,"x_max":1018,"o":"m 558 972 q 894 866 771 972 q 1018 563 1018 760 l 1018 563 l 725 563 q 681 694 725 646 q 557 743 638 743 l 557 743 q 420 685 464 743 q 376 522 376 626 l 376 522 l 376 433 q 420 272 376 331 q 554 213 464 213 l 554 213 q 689 258 643 213 q 735 388 735 304 l 735 388 l 1018 388 q 898 88 1018 192 q 558 -17 778 -17 l 558 -17 q 188 108 314 -17 q 63 478 63 233 l 63 478 q 188 847 63 722 q 558 972 314 972 l 558 972 z "},"D":{"ha":1081,"x_min":103,"x_max":1018,"o":"m 517 956 q 1018 478 1018 956 l 1018 478 q 517 0 1018 0 l 517 0 l 103 0 l 103 956 l 517 956 z m 410 726 l 410 229 l 511 229 q 704 436 704 229 l 704 436 l 704 519 q 511 726 704 726 l 511 726 l 410 726 z "},"E":{"ha":1003,"x_min":103,"x_max":939,"o":"m 103 0 l 103 956 l 929 956 l 929 726 l 410 726 l 410 594 l 854 594 l 854 375 l 410 375 l 410 229 l 939 229 l 939 0 l 103 0 z "},"F":{"ha":926,"x_min":103,"x_max":875,"o":"m 103 0 l 103 956 l 875 956 l 875 726 l 410 726 l 410 563 l 810 563 l 810 343 l 410 343 l 410 0 l 103 0 z "},"G":{"ha":1157,"x_min":63,"x_max":1069,"o":"m 583 972 q 831 931 721 972 q 1005 808 940 889 q 1069 610 1069 726 l 1069 610 l 776 610 q 724 706 776 669 q 596 743 671 743 l 596 743 q 432 685 488 743 q 376 522 376 628 l 376 522 l 376 433 q 432 270 376 328 q 596 213 488 213 l 596 213 q 724 248 671 213 q 776 339 776 283 l 776 339 l 560 339 l 560 533 l 1069 533 l 1069 0 l 911 0 l 881 94 q 539 -17 750 -17 l 539 -17 q 182 108 301 -17 q 63 478 63 232 l 63 478 q 198 847 63 721 q 583 972 333 972 l 583 972 z "},"H":{"ha":1157,"x_min":103,"x_max":1054,"o":"m 1054 0 l 747 0 l 747 363 l 410 363 l 410 0 l 103 0 l 103 956 l 410 956 l 410 607 l 747 607 l 747 956 l 1054 956 l 1054 0 z "},"I":{"ha":540,"x_min":117,"x_max":424,"o":"m 424 0 l 117 0 l 117 956 l 424 956 l 424 0 z "},"J":{"ha":926,"x_min":32,"x_max":824,"o":"m 824 332 q 722 68 824 153 q 428 -17 619 -17 l 428 -17 q 134 68 236 -17 q 32 332 32 153 l 32 332 l 32 344 l 319 344 l 319 333 q 344 240 319 268 q 418 213 368 213 l 418 213 q 492 240 468 213 q 517 333 517 268 l 517 333 l 517 956 l 824 956 l 824 332 z "},"K":{"ha":1157,"x_min":103,"x_max":1138,"o":"m 410 547 l 750 956 l 1131 956 l 788 563 l 1138 0 l 775 0 l 576 350 l 410 214 l 410 0 l 103 0 l 103 956 l 410 956 l 410 547 z "},"L":{"ha":926,"x_min":103,"x_max":900,"o":"m 103 0 l 103 956 l 410 956 l 410 244 l 900 244 l 900 0 l 103 0 z "},"M":{"ha":1311,"x_min":83,"x_max":1228,"o":"m 1228 0 l 924 0 l 924 344 q 928 476 924 408 q 939 589 933 543 q 946 647 944 635 l 946 647 l 940 647 l 764 0 l 524 0 l 346 646 l 340 646 q 348 588 342 633 q 360 476 354 543 q 365 344 365 408 l 365 344 l 365 0 l 83 0 l 83 956 l 517 956 l 661 404 l 667 404 l 810 956 l 1228 956 l 1228 0 z "},"N":{"ha":1157,"x_min":103,"x_max":1054,"o":"m 1054 0 l 786 0 l 385 464 l 385 0 l 103 0 l 103 956 l 371 956 l 772 485 l 772 956 l 1054 956 l 1054 0 z "},"O":{"ha":1157,"x_min":63,"x_max":1094,"o":"m 578 972 q 960 846 825 972 q 1094 478 1094 719 l 1094 478 q 960 110 1094 236 q 578 -17 825 -17 l 578 -17 q 197 109 331 -17 q 63 478 63 235 l 63 478 q 197 847 63 721 q 578 972 331 972 l 578 972 z m 578 743 q 428 683 479 743 q 376 522 376 624 l 376 522 l 376 433 q 428 272 376 332 q 578 213 479 213 l 578 213 q 728 272 676 213 q 781 433 781 332 l 781 433 l 781 522 q 728 683 781 624 q 578 743 676 743 l 578 743 z "},"P":{"ha":1003,"x_min":103,"x_max":944,"o":"m 639 956 q 797 915 728 956 q 906 802 867 874 q 944 642 944 731 l 944 642 l 944 624 q 906 463 944 535 q 797 349 867 390 q 639 308 728 308 l 639 308 l 410 308 l 410 0 l 103 0 l 103 956 l 639 956 z m 410 729 l 410 532 l 536 532 q 609 557 585 532 q 633 625 633 582 l 633 625 l 633 636 q 609 705 633 681 q 536 729 585 729 l 536 729 l 410 729 z "},"Q":{"ha":1157,"x_min":63,"x_max":1094,"o":"m 63 478 q 197 847 63 721 q 578 972 331 972 l 578 972 q 960 846 825 972 q 1094 478 1094 719 l 1094 478 q 1034 206 1094 317 q 858 39 974 96 l 858 39 l 1076 -182 l 711 -182 l 564 -17 q 192 113 322 -12 q 63 478 63 239 l 63 478 z m 781 522 q 728 683 781 624 q 578 743 676 743 l 578 743 q 428 683 479 743 q 376 522 376 624 l 376 522 l 376 433 q 428 272 376 332 q 578 213 479 213 l 578 213 q 728 272 676 213 q 781 433 781 332 l 781 433 l 781 522 z "},"R":{"ha":1081,"x_min":103,"x_max":1038,"o":"m 1010 663 q 963 504 1010 575 q 825 400 915 433 l 825 400 l 1038 0 l 693 0 l 524 349 l 410 349 l 410 0 l 103 0 l 103 956 l 688 956 q 863 916 790 956 q 973 809 936 876 q 1010 663 1010 742 l 1010 663 z m 697 650 q 672 713 697 688 q 611 738 647 738 l 611 738 l 410 738 l 410 561 l 611 561 q 672 587 647 561 q 697 650 697 613 l 697 650 z "},"S":{"ha":1003,"x_min":60,"x_max":953,"o":"m 504 972 q 806 898 688 972 q 926 678 924 824 l 926 678 l 926 661 l 639 661 l 639 667 q 608 736 639 708 q 515 764 578 764 l 515 764 q 422 746 454 764 q 389 701 389 728 l 389 701 q 433 646 389 664 q 576 608 478 628 l 576 608 q 766 559 692 585 q 896 475 840 533 q 953 317 951 417 l 953 317 q 838 65 953 147 q 532 -17 724 -17 l 532 -17 q 184 58 308 -17 q 60 324 60 133 l 60 324 l 350 324 q 388 227 350 251 q 504 203 425 203 l 504 203 q 601 215 563 203 q 639 267 639 228 l 639 267 q 597 319 639 301 q 458 356 554 336 l 458 356 q 265 408 342 381 q 132 497 189 435 q 75 667 75 560 l 75 667 q 197 898 75 824 q 504 972 318 972 l 504 972 z "},"T":{"ha":1003,"x_min":32,"x_max":965,"o":"m 965 711 l 653 711 l 653 0 l 346 0 l 346 711 l 32 711 l 32 956 l 965 956 l 965 711 z "},"U":{"ha":1157,"x_min":103,"x_max":1054,"o":"m 1054 385 q 931 86 1054 189 q 579 -17 807 -17 l 579 -17 q 227 86 351 -17 q 103 385 103 189 l 103 385 l 103 956 l 410 956 l 410 389 q 453 260 410 308 q 578 213 496 213 l 578 213 q 703 261 660 213 q 747 389 747 310 l 747 389 l 747 956 l 1054 956 l 1054 385 z "},"V":{"ha":1081,"x_min":24,"x_max":1056,"o":"m 718 0 l 363 0 l 24 956 l 351 956 l 543 317 l 549 317 l 742 956 l 1056 956 l 718 0 z "},"W":{"ha":1389,"x_min":7,"x_max":1382,"o":"m 1158 0 l 821 0 l 697 582 l 692 582 l 568 0 l 231 0 l 7 956 l 326 956 l 436 414 l 442 414 l 550 956 l 853 956 l 968 414 l 974 414 l 1076 956 l 1382 956 l 1158 0 z "},"X":{"ha":1081,"x_min":6,"x_max":1081,"o":"m 739 504 l 1081 0 l 708 0 l 532 297 l 526 297 l 350 0 l 6 0 l 347 506 l 39 956 l 410 956 l 554 711 l 560 711 l 706 956 l 1049 956 l 739 504 z "},"Y":{"ha":1081,"x_min":10,"x_max":1069,"o":"m 696 371 l 696 0 l 389 0 l 389 371 l 10 956 l 363 956 l 546 638 l 551 638 l 735 956 l 1069 956 l 696 371 z "},"Z":{"ha":1003,"x_min":33,"x_max":960,"o":"m 949 857 l 506 229 l 960 229 l 960 0 l 33 0 l 33 99 l 476 726 l 67 726 l 67 956 l 949 956 l 949 857 z "},"a":{"ha":926,"x_min":42,"x_max":919,"o":"m 446 750 q 719 694 614 750 q 825 511 825 638 l 825 511 l 825 225 q 836 186 825 201 q 869 171 847 171 l 869 171 l 919 171 l 919 11 q 898 2 915 8 q 849 -10 881 -4 q 775 -17 817 -17 l 775 -17 q 642 8 694 -17 q 571 75 590 32 l 571 75 q 453 8 518 33 q 300 -17 388 -17 l 300 -17 q 42 189 42 -17 l 42 189 q 99 352 42 296 q 265 429 157 408 q 549 450 374 450 l 549 450 l 549 486 q 519 551 549 529 q 442 574 489 574 l 442 574 q 367 558 399 574 q 336 510 336 543 l 336 510 l 336 504 l 64 504 q 63 524 63 511 l 63 524 q 162 689 63 628 q 446 750 261 750 l 446 750 z m 549 319 q 374 294 431 319 q 318 225 318 268 l 318 225 q 413 156 318 156 l 413 156 q 508 185 467 156 q 549 257 549 214 l 549 257 l 549 319 z "},"b":{"ha":926,"x_min":85,"x_max":876,"o":"m 361 665 q 567 750 440 750 l 567 750 q 796 653 715 750 q 876 368 876 557 l 876 368 q 796 81 876 178 q 567 -17 715 -17 l 567 -17 q 333 104 414 -17 l 333 104 l 310 0 l 85 0 l 85 1007 l 361 1007 l 361 665 z m 481 546 q 389 502 419 546 q 358 389 358 458 l 358 389 l 358 343 q 389 231 358 274 q 481 188 419 188 l 481 188 q 600 329 600 188 l 600 329 l 600 403 q 481 546 600 546 l 481 546 z "},"c":{"ha":926,"x_min":50,"x_max":867,"o":"m 463 750 q 755 673 643 750 q 867 438 867 596 l 867 438 l 599 438 q 463 563 599 563 l 463 563 q 326 406 326 563 l 326 406 l 326 326 q 468 171 326 171 l 468 171 q 610 299 610 171 l 610 299 l 867 299 q 755 61 867 139 q 463 -17 643 -17 l 463 -17 q 160 81 269 -17 q 50 367 50 178 l 50 367 q 160 653 50 556 q 463 750 269 750 l 463 750 z "},"d":{"ha":926,"x_min":50,"x_max":842,"o":"m 842 0 l 617 0 l 593 104 q 360 -17 513 -17 l 360 -17 q 131 81 211 -17 q 50 368 50 178 l 50 368 q 131 653 50 557 q 360 750 211 750 l 360 750 q 565 665 486 750 l 565 665 l 565 1007 l 842 1007 l 842 0 z m 446 546 q 326 403 326 546 l 326 403 l 326 329 q 446 188 326 188 l 446 188 q 538 231 507 188 q 568 343 568 274 l 568 343 l 568 389 q 538 502 568 458 q 446 546 507 546 l 446 546 z "},"e":{"ha":926,"x_min":50,"x_max":876,"o":"m 463 750 q 770 656 664 750 q 876 367 876 561 l 876 367 l 876 319 l 326 319 q 362 200 326 240 q 474 160 397 160 l 474 160 q 576 189 543 160 q 608 267 608 218 l 608 267 l 876 267 q 775 58 876 133 q 479 -17 674 -17 l 479 -17 q 163 78 275 -17 q 50 367 50 174 l 50 367 q 160 653 50 556 q 463 750 269 750 l 463 750 z m 474 574 q 328 450 343 574 l 328 450 l 597 450 q 565 540 597 507 q 474 574 532 574 l 474 574 z "},"f":{"ha":540,"x_min":11,"x_max":532,"o":"m 382 1024 q 458 1016 413 1024 q 532 999 504 1008 l 532 999 l 532 836 l 468 836 q 407 819 424 836 q 390 763 390 803 l 390 763 l 390 733 l 532 733 l 532 546 l 390 546 l 390 0 l 114 0 l 114 546 l 11 546 l 11 733 l 114 733 l 114 764 q 183 965 114 906 q 382 1024 253 1024 l 382 1024 z "},"g":{"ha":926,"x_min":7,"x_max":908,"o":"m 908 871 q 866 740 908 786 q 739 672 824 694 l 739 672 q 802 601 779 642 q 825 514 825 560 l 825 514 q 737 338 825 397 q 517 278 649 278 l 517 278 l 411 278 q 324 238 324 278 l 324 238 q 343 206 324 218 q 411 194 363 194 l 411 194 l 661 194 q 846 131 783 194 q 908 -40 908 67 l 908 -40 q 867 -176 908 -119 q 754 -262 825 -233 q 600 -292 683 -292 l 600 -292 l 192 -292 q 99 -268 142 -292 q 32 -203 57 -244 q 7 -112 7 -162 l 7 -112 q 40 -15 7 -58 q 124 51 74 29 l 124 51 q 71 108 90 75 q 51 181 51 142 l 51 181 q 92 278 51 235 q 192 338 132 322 l 192 338 q 106 417 138 372 q 74 513 74 463 l 74 513 q 177 695 74 640 q 451 750 281 750 l 451 750 q 572 742 526 750 l 572 742 q 660 820 640 785 q 681 871 681 856 l 681 871 l 908 871 z m 449 606 q 374 582 403 606 q 344 514 344 558 l 344 514 q 372 445 344 468 q 449 422 399 422 l 449 422 q 527 445 499 422 q 556 514 556 468 l 556 514 q 527 583 556 560 q 449 606 499 606 l 449 606 z m 342 0 q 290 -17 310 0 q 269 -67 269 -35 l 269 -67 q 290 -118 269 -99 q 342 -137 311 -137 l 342 -137 l 558 -137 q 610 -119 589 -137 q 632 -68 632 -100 l 632 -68 q 611 -18 632 -36 q 558 0 590 0 l 558 0 l 342 0 z "},"h":{"ha":926,"x_min":83,"x_max":844,"o":"m 360 657 q 464 726 404 701 q 589 750 524 750 l 589 750 q 781 679 717 750 q 844 475 844 608 l 844 475 l 844 0 l 568 0 l 568 442 q 544 517 568 489 q 475 546 519 546 l 475 546 q 392 513 424 546 q 360 431 360 479 l 360 431 l 360 0 l 83 0 l 83 1007 l 360 1007 l 360 657 z "},"i":{"ha":463,"x_min":93,"x_max":369,"o":"m 369 819 l 93 819 l 93 1007 l 369 1007 l 369 819 z m 369 0 l 93 0 l 93 733 l 369 733 l 369 0 z "},"j":{"ha":463,"x_min":-57,"x_max":369,"o":"m 369 819 l 93 819 l 93 1007 l 369 1007 l 369 819 z m 369 -40 q 309 -233 369 -174 q 115 -292 249 -292 l 115 -292 q 26 -285 79 -292 q -57 -267 -26 -278 l -57 -267 l -57 -101 l 15 -101 q 93 -12 93 -101 l 93 -12 l 93 733 l 369 733 l 369 -40 z "},"k":{"ha":926,"x_min":83,"x_max":924,"o":"m 360 453 l 594 733 l 917 733 l 646 438 l 924 0 l 610 0 l 456 251 l 360 158 l 360 0 l 83 0 l 83 1008 l 360 1008 l 360 453 z "},"l":{"ha":463,"x_min":93,"x_max":369,"o":"m 369 0 l 93 0 l 93 1007 l 369 1007 l 369 0 z "},"m":{"ha":1389,"x_min":83,"x_max":1307,"o":"m 1057 750 q 1244 678 1182 750 q 1307 475 1307 607 l 1307 475 l 1307 0 l 1031 0 l 1031 442 q 1008 517 1031 489 q 943 546 985 546 l 943 546 q 864 513 894 546 q 833 431 833 479 l 833 431 l 833 0 l 557 0 l 557 442 q 534 517 557 489 q 469 546 511 546 l 469 546 q 390 513 421 546 q 360 431 360 479 l 360 431 l 360 0 l 83 0 l 83 733 l 310 733 l 328 624 q 438 716 369 682 q 583 750 507 750 l 583 750 q 806 624 749 750 l 806 624 q 916 716 849 682 q 1057 750 983 750 l 1057 750 z "},"n":{"ha":926,"x_min":83,"x_max":844,"o":"m 589 750 q 781 679 717 750 q 844 475 844 608 l 844 475 l 844 0 l 568 0 l 568 442 q 544 517 568 489 q 475 546 519 546 l 475 546 q 392 513 424 546 q 360 431 360 479 l 360 431 l 360 0 l 83 0 l 83 733 l 310 733 l 328 622 q 441 715 371 681 q 589 750 511 750 l 589 750 z "},"o":{"ha":926,"x_min":50,"x_max":876,"o":"m 463 750 q 766 652 656 750 q 876 367 876 554 l 876 367 q 766 81 876 179 q 463 -17 656 -17 l 463 -17 q 160 81 269 -17 q 50 367 50 178 l 50 367 q 160 653 50 556 q 463 750 269 750 l 463 750 z m 463 563 q 326 406 326 563 l 326 406 l 326 326 q 463 171 326 171 l 463 171 q 600 326 600 171 l 600 326 l 600 406 q 463 563 600 563 l 463 563 z "},"p":{"ha":926,"x_min":85,"x_max":876,"o":"m 567 750 q 796 653 715 750 q 876 365 876 556 l 876 365 q 796 80 876 176 q 567 -17 715 -17 l 567 -17 q 361 67 439 -17 l 361 67 l 361 -274 l 85 -274 l 85 733 l 310 733 l 333 629 q 567 750 414 750 l 567 750 z m 481 546 q 389 503 419 546 q 358 390 358 460 l 358 390 l 358 344 q 389 231 358 275 q 481 188 419 188 l 481 188 q 600 331 600 188 l 600 331 l 600 404 q 481 546 600 546 l 481 546 z "},"q":{"ha":926,"x_min":50,"x_max":842,"o":"m 360 750 q 593 629 513 750 l 593 629 l 617 733 l 842 733 l 842 -274 l 565 -274 l 565 67 q 360 -17 488 -17 l 360 -17 q 131 80 211 -17 q 50 365 50 176 l 50 365 q 131 653 50 556 q 360 750 211 750 l 360 750 z m 446 546 q 326 404 326 546 l 326 404 l 326 331 q 446 188 326 188 l 446 188 q 538 231 507 188 q 568 344 568 275 l 568 344 l 568 390 q 538 503 568 460 q 446 546 507 546 l 446 546 z "},"r":{"ha":617,"x_min":83,"x_max":611,"o":"m 529 751 q 586 744 561 751 q 611 735 611 736 l 611 735 l 611 503 l 522 503 q 398 458 436 503 q 360 326 360 414 l 360 326 l 360 0 l 83 0 l 83 733 l 310 733 l 328 622 q 407 719 353 686 q 529 751 461 751 l 529 751 z "},"s":{"ha":849,"x_min":44,"x_max":801,"o":"m 432 750 q 681 692 579 750 q 783 514 783 635 l 783 514 l 526 514 q 490 571 526 554 l 490 571 q 428 585 465 585 l 428 585 q 328 538 328 585 l 328 538 q 363 500 328 511 q 476 476 397 489 l 476 476 q 639 444 574 463 q 753 377 704 425 q 801 243 801 329 l 801 243 q 697 43 801 103 q 422 -17 592 -17 l 422 -17 q 239 10 325 -17 q 99 94 153 38 q 44 239 44 151 l 44 239 l 301 239 l 301 233 q 341 167 303 186 q 422 149 379 149 l 422 149 q 538 203 538 149 l 538 203 q 501 243 538 231 q 383 269 465 256 l 383 269 q 222 306 285 286 q 111 372 158 325 q 64 501 64 418 l 64 501 q 166 693 64 636 q 432 750 268 750 l 432 750 z "},"t":{"ha":617,"x_min":38,"x_max":572,"o":"m 417 733 l 572 733 l 572 546 l 417 546 l 417 267 q 433 194 417 217 q 494 171 450 171 l 494 171 l 572 171 l 572 8 q 486 -10 539 -3 q 394 -17 433 -17 l 394 -17 q 206 28 272 -17 q 140 179 140 72 l 140 179 l 140 546 l 38 546 l 38 733 l 151 733 l 211 956 l 417 956 l 417 733 z "},"u":{"ha":926,"x_min":81,"x_max":842,"o":"m 842 0 l 615 0 l 597 111 q 484 17 554 51 q 336 -17 414 -17 l 336 -17 q 144 54 208 -17 q 81 258 81 125 l 81 258 l 81 733 l 357 733 l 357 292 q 381 216 357 244 q 450 188 406 188 l 450 188 q 533 221 501 188 q 565 303 565 254 l 565 303 l 565 733 l 842 733 l 842 0 z "},"v":{"ha":849,"x_min":0,"x_max":849,"o":"m 568 0 l 278 0 l 0 733 l 297 733 l 432 276 l 442 276 l 576 733 l 849 733 l 568 0 z "},"w":{"ha":1311,"x_min":0,"x_max":1311,"o":"m 1042 0 l 772 0 l 658 408 l 653 408 l 538 0 l 268 0 l 0 733 l 297 733 l 408 300 l 418 300 l 533 733 l 808 733 l 919 300 l 929 300 l 1042 733 l 1311 733 l 1042 0 z "},"x":{"ha":926,"x_min":6,"x_max":919,"o":"m 644 382 l 919 0 l 597 0 l 458 231 l 453 231 l 313 0 l 6 0 l 288 389 l 33 733 l 358 733 l 475 539 l 481 539 l 597 733 l 903 733 l 644 382 z "},"y":{"ha":849,"x_min":0,"x_max":849,"o":"m 588 22 q 448 -212 531 -132 q 217 -292 365 -292 l 217 -292 q 57 -267 126 -292 l 57 -267 l 57 -101 l 168 -101 q 292 0 272 -101 l 292 0 l 0 733 l 297 733 l 438 246 l 447 246 l 576 733 l 849 733 l 588 22 z "},"z":{"ha":772,"x_min":28,"x_max":743,"o":"m 731 647 l 419 188 l 743 188 l 743 0 l 28 0 l 28 90 l 336 546 l 44 546 l 44 733 l 731 733 l 731 647 z "}," ":{"ha":463,"x_min":0,"x_max":0,"o":""},".":{"ha":463,"x_min":85,"x_max":379,"o":"m 379 0 l 85 0 l 85 276 l 379 276 l 379 0 z "},",":{"ha":463,"x_min":83,"x_max":379,"o":"m 379 15 l 233 -254 l 83 -254 l 197 0 l 85 0 l 85 276 l 379 276 l 379 15 z "},"!":{"ha":463,"x_min":65,"x_max":397,"o":"m 318 342 l 142 342 l 65 956 l 397 956 l 318 342 z m 368 0 l 93 0 l 93 257 l 368 257 l 368 0 z "},"?":{"ha":849,"x_min":51,"x_max":786,"o":"m 431 972 q 617 938 536 972 q 742 838 697 903 q 786 689 786 774 l 786 689 q 763 592 786 635 q 707 521 739 550 q 626 457 675 492 l 626 457 q 567 408 586 426 q 549 371 549 390 l 549 371 l 549 342 l 311 342 l 311 411 q 332 472 311 444 q 397 540 353 499 l 397 540 q 467 613 443 581 q 492 683 492 644 l 492 683 q 467 752 492 724 q 400 781 442 781 l 400 781 q 310 664 310 781 l 310 664 q 311 626 310 639 l 311 626 l 56 626 q 53 649 54 636 q 51 679 51 661 l 51 679 q 100 834 51 768 q 235 936 149 900 q 431 972 322 972 l 431 972 z m 569 0 l 294 0 l 294 257 l 569 257 l 569 0 z "},"&":{"ha":1235,"x_min":104,"x_max":1233,"o":"m 579 972 q 825 938 721 972 q 985 843 929 903 q 1040 711 1040 783 l 1040 711 l 1040 676 l 794 676 q 744 748 794 719 q 597 776 693 776 l 597 776 q 462 742 508 776 q 415 660 415 708 l 415 660 q 444 594 415 617 q 514 572 472 572 l 514 572 l 658 572 l 658 401 l 483 401 q 413 376 440 401 q 386 301 386 350 l 386 301 q 434 212 386 244 q 586 179 482 179 l 586 179 q 794 303 794 179 l 794 303 l 794 572 l 1233 572 l 1233 401 l 1043 401 l 1043 308 q 933 68 1043 153 q 588 -17 822 -17 l 588 -17 q 225 61 346 -17 q 104 267 104 139 l 104 267 q 148 410 104 350 q 271 496 192 471 l 271 496 l 271 501 q 172 578 211 524 q 132 699 132 632 l 132 699 q 183 836 132 774 q 335 935 233 899 q 579 972 436 972 l 579 972 z "},"'":{"ha":386,"x_min":79,"x_max":306,"o":"m 306 751 l 239 553 l 144 553 l 79 751 l 79 956 l 306 956 l 306 751 z "},"\"":{"ha":694,"x_min":82,"x_max":613,"o":"m 308 751 l 243 553 l 147 553 l 82 751 l 82 956 l 308 956 l 308 751 z m 613 751 l 546 553 l 451 553 l 386 751 l 386 956 l 613 956 l 613 751 z "},"-":{"ha":463,"x_min":54,"x_max":408,"o":"m 408 272 l 54 272 l 54 492 l 408 492 l 408 272 z "},":":{"ha":463,"x_min":85,"x_max":379,"o":"m 379 456 l 85 456 l 85 733 l 379 733 l 379 456 z m 379 0 l 85 0 l 85 276 l 379 276 l 379 0 z "}}}
